<svg width="512" height="428" viewBox="0 0 512 428" fill="none" xmlns="http://www.w3.org/2000/svg">
<path d="M476.708 45.3333C452.937 18.6042 420.646 2.81259 385.813 0.875092C348.479 -1.24992 312.146 12.125 282.958 38.375L256 62.646L229.021 38.375C199.875 12.125 163.5 -1.29173 126.188 0.875092C91.3542 2.81259 59.0626 18.6042 35.2917 45.3333C11.875 71.677 -7.62939e-06 103.76 -7.62939e-06 140.688C-7.62939e-06 272.552 240.25 419.594 250.479 425.792C252.167 426.823 254.083 427.334 256 427.334C257.917 427.334 259.833 426.823 261.521 425.792C271.75 419.594 512 272.552 512 140.688C512 103.76 500.125 71.6772 476.708 45.3333ZM437.333 151.354C431.437 151.354 426.667 146.583 426.667 140.688C426.667 124.646 422.438 112.719 412.917 102.031C409.063 97.6772 404.75 94.1564 400.125 91.5731C394.979 88.6878 393.146 82.1982 396.021 77.0524C398.896 71.8857 405.417 70.0836 410.542 72.9483C417.25 76.7087 423.417 81.7295 428.875 87.865C441.75 102.334 448 119.615 448 140.688C448 146.584 443.229 151.354 437.333 151.354Z" fill="#FD3018"/>
</svg>
